<?xml version="1.0" encoding="utf-8"?>
<!-- Generator: Adobe Illustrator 19.2.1, SVG Export Plug-In . SVG Version: 6.00 Build 0)  -->
<svg version="1.1" id="Layer_1" xmlns="http://www.w3.org/2000/svg" xmlns:xlink="http://www.w3.org/1999/xlink" x="0px" y="0px"
	 viewBox="0 0 200 200" style="enable-background:new 0 0 200 200;" xml:space="preserve">
<style type="text/css">
	.st0{fill:#FFFFFF;}
</style>
<path class="st0" d="M168.1,38.2c-7,1-56.4,29.3-56.4,29.3L87.4,55l2.5-2.5l-6.5-9.1l-8.6,5.1L45.4,33.7l-10.9,7.6l24.4,20
	c-3.9,4.3-3.9,6.3-1.7,6.6c2.6,0.3,7.9-2,7.9-2l21.5,17.5l-51.9,31.5l-16.5-5.1l-9,5.5L29,128.4l-5.1,3.7c-6.1,5.3,0.9,3.3,0.9,3.3
	l6.5-3.3l2.3,24.1l9-5.5l3.2-16.3l52.8-30.6c0,0,5,23.3,5,24.8c0,1.5-5.8,5.3-6,7.3c-0.4,4.7,6.8,2.7,6.8,2.7l6.4,31.7l11.3-7
	l1.7-34.1l8.6-4.3c-3.2-9.8-4.1-9.3-4.1-9.3h-4c1-5.8,1.2-27.1,1.2-27.1c26.4-15.7,46.9-26,56.1-33.7
	C204.3,35.7,179.6,36.5,168.1,38.2z M146.7,57.9l-0.7,0.4c-1.1,0.6-2.4,0.2-2.9-0.9c-0.6-1.1-0.2-2.4,0.9-2.9l0.7-0.4
	c1.1-0.6,2.4-0.2,2.9,0.9C148.1,56.1,147.7,57.4,146.7,57.9z M155.1,53.7l-0.7,0.4c-1.1,0.6-2.4,0.2-2.9-0.9
	c-0.6-1.1-0.2-2.4,0.9-2.9l0.7-0.4c1.1-0.6,2.4-0.2,2.9,0.9C156.5,51.8,156.1,53.1,155.1,53.7z M163.4,49.5l-0.7,0.4
	c-1.1,0.6-2.4,0.2-2.9-0.9c-0.6-1.1-0.2-2.4,0.9-2.9l0.7-0.4c1.1-0.6,2.4-0.2,2.9,0.9S164.5,48.9,163.4,49.5z"/>
</svg>
