<?xml version="1.0" encoding="utf-8"?>
<!-- Generator: Adobe Illustrator 19.2.1, SVG Export Plug-In . SVG Version: 6.00 Build 0)  -->
<svg version="1.1" id="Layer_1" xmlns="http://www.w3.org/2000/svg" xmlns:xlink="http://www.w3.org/1999/xlink" x="0px" y="0px"
	 viewBox="0 0 200 200" style="enable-background:new 0 0 200 200;" xml:space="preserve">
<style type="text/css">
	.st0{fill:none;stroke:#FFFFFF;stroke-width:2;stroke-miterlimit:10;}
	.st1{fill:#FFFFFF;}
</style>
<g>
	<path class="st0" d="M36.5,52.7l40.1-40c1.5-1.5,4.1-0.4,4.1,1.7v40.1c0,1.3-1.1,2.4-2.4,2.4l-40.1-0.1
		C36.1,56.8,35,54.3,36.5,52.7z"/>
</g>
<path class="st1" d="M145.2,11.2H77.5V43c0,0,0.4,11.2-11.2,11.2c-11.7,0-31.5-0.2-31.5-0.2v114.2c0,11,9,20,20,20h90.3
	c11,0,20-9,20-20v-137C165.2,20.2,156.2,11.2,145.2,11.2z M77.9,66c0.7-1,1.5-2,2.2-3c2.5-3.5,2-4.3,6.2-4.3c0.2,0,1,0,1.2,0
	c13.9,0,27.8,0,41.6,0c-0.9,1.6-1.9,3.1-2.6,4.8c-1,2.1-2.5,2.8-4.8,2.7c-3.1-0.2-6.2-0.1-9.2-0.1c1.4,2.7,2.7,5.1,4.1,7.8
	c3.9,0,8.1,0,12.7,0c-1.4,2.2-2.5,4.1-3.9,5.9c-0.4,0.6-1.3,1-1.9,1.1c-2.1,0.2-4.3,0.1-6.5,0.3c-0.5,0-1.2,0.5-1.3,0.9
	c-1.8,8.2-7.3,12.8-14.8,15.5c-2.7,1-5.5,1.5-8.4,2.2c9.1,11.8,18.2,23.5,27.3,35.3c-4.1,0-8.2,0-12.2,0c-0.4-0.6-0.8-1.2-1.2-1.7
	c-7.9-10-15.6-20.1-23.8-29.8c-2.7-3.2-2-6.4-2.1-9.8c3,0,5.8,0.1,8.6,0c3.6-0.1,7.1-0.8,10.2-2.7c3.8-2.3,5.6-5.8,6.4-10.3
	c-9.2,0-18.1,0-27.4,0c1.3-2.3,2.6-4.2,3.6-6.2c0.6-1.1,1.4-1.4,2.6-1.4c6.1,0.2,12.2,0.2,18.3,0.3c0.5,0,1.1-0.1,1.7-0.1
	c-2-3.9-4.3-6.4-8.2-6.8c-5.8-0.6-12.7-0.1-18.5-0.3C77.9,66.2,77.9,66.1,77.9,66z M142.6,170.8H56.7c-1.5,0-2.7-1.4-2.7-3
	c0-1.7,1.2-3,2.7-3h85.8c1.5,0,2.7,1.4,2.7,3C145.3,169.5,144,170.8,142.6,170.8z M142.6,156.3H56.7c-1.5,0-2.7-1.4-2.7-3
	s1.2-3,2.7-3h85.8c1.5,0,2.7,1.4,2.7,3S144,156.3,142.6,156.3z"/>
</svg>
