<?xml version="1.0" encoding="utf-8"?>
<!-- Generator: Adobe Illustrator 19.2.1, SVG Export Plug-In . SVG Version: 6.00 Build 0)  -->
<svg version="1.1" id="Layer_1" xmlns="http://www.w3.org/2000/svg" xmlns:xlink="http://www.w3.org/1999/xlink" x="0px" y="0px"
	 viewBox="0 0 200 200" style="enable-background:new 0 0 200 200;" xml:space="preserve">
<style type="text/css">
	.st0{fill:#FFFFFF;}
</style>
<path class="st0" d="M29.2,119.3c-2.1-22.8,2.9-49.9,5.9-77.1c1.2-10.7,7.3-16.7,16.5-20.4c10-4.1,20.6-5.6,31.2-6.3
	c21.1-1.5,42.1-2.1,62.6,4.8c12.4,4.2,20.1,10.8,22.7,25.3c6.7,38.3,5.6,76.8,5.8,115.3c0,4.9-3.1,4.5-5.8,4
	c-7.2-1.2-10.2,1.9-9.4,8.6c0.4,3.3,0.1,6.9-1.8,10c-1.9,3.2-5.2,4.2-8.8,4.2c-3.7-0.1-6.7-1.5-8.3-5c-0.9-2-1.6-4.3-1.8-6.5
	c-1.3-11.3,0.8-11.3-10.4-11.3c-20.2,0-40.4,0.2-60.6-0.1c-5.6-0.1-7.3,1.7-6.6,6.9c0.3,2-0.1,4.1,0.1,6.1c0.4,5.9-2.8,9-8.2,9.7
	c-5.7,0.8-9.8-1.4-11.2-7.3c-0.4-1.7-0.6-3.6-0.5-5.4c0.3-5.9,0.8-11.6-8.2-10c-3.6,0.6-3-2.5-3-4.7
	C29.2,148.2,29.2,136.2,29.2,119.3z M100.7,97c17.2,0,34.5-0.2,51.7,0.1c6.2,0.1,8.2-2.2,7.4-8c-1.8-13-3.3-26-5.3-39
	c-0.7-4.8-3.4-7.1-8.9-7c-29,0.3-58,0.1-87,0.1c-9.8,0-11.5,1.4-12.8,11.4c-1.5,10.8-2.9,21.5-4.4,32.3c-1.3,9.4-0.7,10,9,10
	C67.1,97,83.9,97,100.7,97z M60.4,132.8c0.1-5.7-4.2-10-9.7-9.9c-5.3,0.1-10,4.8-10,10c0,5.4,4.4,9.7,10,9.8
	C56.2,142.8,60.3,138.7,60.4,132.8z M150.9,142.7c5.8-0.1,9.7-4.3,9.4-10.1c-0.2-5.6-4.6-9.8-10.1-9.7c-5.5,0.2-9.6,4.7-9.4,10.3
	C140.9,139,145,142.9,150.9,142.7z"/>
</svg>
