<?xml version="1.0" encoding="utf-8"?>
<!-- Generator: Adobe Illustrator 19.2.1, SVG Export Plug-In . SVG Version: 6.00 Build 0)  -->
<svg version="1.1" id="Layer_1" xmlns="http://www.w3.org/2000/svg" xmlns:xlink="http://www.w3.org/1999/xlink" x="0px" y="0px"
	 viewBox="0 0 200 200" style="enable-background:new 0 0 200 200;" xml:space="preserve">
<style type="text/css">
	.st0{fill:#FFFFFF;}
</style>
<path class="st0" d="M9.7,158V105c0-0.6,0.1-1.3,0.3-1.9c1.7-4.6,4-8.8,8.5-10.4c8-2.9,10.2-9.5,12.5-16.4c1.4-4,3-7.9,4.6-11.9
	c10.4-26.6,10.8-27,39.7-26.7c5.9,0.1,8-1.4,7.2-7.3c-0.8-6.2,2.1-9.2,8.6-8.7c5.2,0.4,10.4,0.1,15.6,0.1c11.3,0,11.5,0,11.7,11.3
	c0,3.9,1.4,4.7,4.9,4.6c5.2-0.2,10.4-0.1,15.6,0c10.5,0.2,17.8,4.8,21.6,15.1c3.9,10.6,8.2,21.1,12.3,31.6c1,2.6,2,4.7,5.2,6
	c8.9,3.7,13.2,10.9,13.1,20.7c-0.1,13.2-0.4,26.5,0.2,39.7c0.3,6.4,0,7.4-7.7,7.4c-5.5,0-7.5,1-7,6.7c0.9,8.7,0.4,17.3-8.1,22.8
	c-3,0.3-5.5,0.5-8.5,0.8c-11.2-4.6-11.3-13.8-10.5-23.1c0.5-5.8-1.2-7.5-7.2-7.5c-27.8,0.3-55.6,0.4-83.3,0
	c-6.7-0.1-8.5,1.9-7.9,8.2c0.9,9.2,0.1,18-10.7,22.5c-3.1-0.4-5.6-0.7-8.6-1.1c-5.2-3.8-7.9-8.8-8-15.4
	C23.8,158.3,23.7,158.3,9.7,158z M159.4,88.1c-4.4-11.2-8.4-21.9-12.8-32.5c-1.3-3-4.3-4.1-7.7-4c-25.7,0.1-51.4,0.1-77.1,0
	c-3.4,0-6.4,1.1-7.6,4.1C49.8,66.3,45.8,77,41.5,88.1C81.2,88.1,119.7,88.1,159.4,88.1z M50.8,125.8c0-6.9-5.6-12.7-12.4-12.9
	c-6.6-0.1-12.6,5.7-12.8,12.5c-0.3,7.1,5.6,13.1,12.8,13C45.3,138.3,50.8,132.8,50.8,125.8z M175.3,125.8c0-6.7-5.9-12.7-12.5-12.9
	c-6.7-0.1-12.5,5.6-12.7,12.5c-0.2,7.3,5.4,13.1,12.7,13C169.7,138.3,175.3,132.7,175.3,125.8z"/>
</svg>
