<?xml version="1.0" encoding="utf-8"?>
<!-- Generator: Adobe Illustrator 19.2.1, SVG Export Plug-In . SVG Version: 6.00 Build 0)  -->
<svg version="1.1" id="Layer_1" xmlns="http://www.w3.org/2000/svg" xmlns:xlink="http://www.w3.org/1999/xlink" x="0px" y="0px"
	 viewBox="0 0 200 200" style="enable-background:new 0 0 200 200;" xml:space="preserve">
<style type="text/css">
	.st0{fill:none;stroke:#FFFFFF;stroke-width:4;stroke-miterlimit:10;}
	.st1{fill:#FFFFFF;}
</style>
<path class="st0" d="M187,120.2c0,3.1-2.9,5.5-6.5,5.5H67.2c-3.6,0-6.5-2.5-6.5-5.5V53.5c0-3.1,2.9-5.5,6.5-5.5h113.4
	c3.6,0,6.5,2.5,6.5,5.5V120.2z"/>
<path class="st1" d="M187,58.2l-60.5,42.9c-1.5,1.2-3.8,1.2-5.3,0L60.7,59.5c0,0-2.5-11,6.5-11h113.4C180.6,48.4,188,48.4,187,58.2z
	"/>
<circle class="st1" cx="92.1" cy="140.6" r="14.1"/>
<circle class="st1" cx="159.2" cy="140.6" r="14.1"/>
<g>
	<g>
		<path class="st1" d="M59.1,70.3c-14.8,0-29.6,0-44.3,0c-3.2,0-3.2,5,0,5c14.8,0,29.6,0,44.3,0C62.3,75.3,62.3,70.3,59.1,70.3
			L59.1,70.3z"/>
	</g>
</g>
<g>
	<g>
		<path class="st1" d="M59.1,87.4c-11.5,0-23,0-34.5,0c-3.2,0-3.2,5,0,5c11.5,0,23,0,34.5,0C62.3,92.4,62.3,87.4,59.1,87.4
			L59.1,87.4z"/>
	</g>
</g>
<g>
	<g>
		<path class="st1" d="M57.9,102.9c-6.2,0-12.4,0-18.7,0c-3.2,0-3.2,5,0,5c6.2,0,12.4,0,18.7,0C61.1,107.9,61.1,102.9,57.9,102.9
			L57.9,102.9z"/>
	</g>
</g>
</svg>
