<?xml version="1.0" encoding="utf-8"?>
<!-- Generator: Adobe Illustrator 19.2.1, SVG Export Plug-In . SVG Version: 6.00 Build 0)  -->
<svg version="1.1" id="Layer_1" xmlns="http://www.w3.org/2000/svg" xmlns:xlink="http://www.w3.org/1999/xlink" x="0px" y="0px"
	 viewBox="0 0 200 200" style="enable-background:new 0 0 200 200;" xml:space="preserve">
<style type="text/css">
	.st0{fill:#FFFFFF;}
</style>
<g>
	<path class="st0" d="M101.3,9.5c-50.1,0-90.6,40.6-90.6,90.6c0,39.1,24.8,72.4,59.4,85.1c0.4-17.5,0.8-36.2,1.3-46.8
		c0.3-4.7-0.7-8.6-4.6-11.2c-10.7-6.7-8.3-17.9-7.5-25.3c1.7-14,3-28.1,4.5-42.1c0.1-1.3-0.2-3.4,1.8-3.2c1.5,0.2,1.1,2,1.1,3.3
		c-0.3,12.2-0.5,24.4-0.8,36.6c0,1.2-0.6,3.1,1.1,3.2c1.8,0.1,1.4-1.9,1.4-3c0.7-11.8,1.3-23.6,2.1-35.4c0.1-1.7-0.7-4.8,1.9-4.7
		c2.5,0.1,1.5,3.1,1.6,4.9c0.3,11.9,0.5,23.9,0.8,35.8c0,0.9-0.6,2.4,1,2.5c1.9,0.1,1.3-1.6,1.3-2.6c0.3-12.3,0.5-24.7,0.8-37
		c0-1.5-0.5-3.6,1.7-3.7c1.9,0,1.5,2.1,1.6,3.4c0.7,11.5,1.5,23.1,2.2,34.6c0.1,0.9,0,1.8,0.1,2.7c0.1,1.1-0.1,2.7,1.6,2.5
		c1.4-0.2,0.9-1.6,0.9-2.6c-0.2-11.6-0.5-23.1-0.7-34.7c0-0.9-0.1-1.8-0.1-2.7c-0.1-1.3-0.2-3.1,1.3-3.2c1.7-0.1,1.5,1.7,1.6,3
		c1.9,15.3,3.6,38.4,4.7,53.8c0.3,4.8-1.2,8.8-5.1,11.5c-5.9,4.2-7.4,6.4-7,13.6c0.8,14.4,1.3,32.3,1.8,50.3
		c6,1.3,12.2,1.9,18.6,1.9c10.2,0,20-1.7,29.1-4.8c0.1-10.5-0.4-20.1-0.3-23.3c0.1-3,0-3.5-2.5-5.3c-6.8-5-8.3-11.6-7.9-19.8
		c1-23.7,2.3-49.2,9.6-71.8c0.6-2,1.3-3.2,2.4-5c1.6-2.3,3.6-4.7,5.9-0.3c1.1,2.1,1.3,4.4,1.3,6.8c0,30.6,0,61.2,0,97
		c0.1,4.1,0.3,12.1,0.5,18.1c31-14.4,52.4-45.8,52.4-82.2C192,50.1,151.4,9.5,101.3,9.5z"/>
</g>
</svg>
