<?xml version="1.0" encoding="utf-8"?>
<!-- Generator: Adobe Illustrator 19.2.1, SVG Export Plug-In . SVG Version: 6.00 Build 0)  -->
<svg version="1.1" id="Layer_1" xmlns="http://www.w3.org/2000/svg" xmlns:xlink="http://www.w3.org/1999/xlink" x="0px" y="0px"
	 viewBox="0 0 200 200" style="enable-background:new 0 0 200 200;" xml:space="preserve">
<style type="text/css">
	.st0{fill:#FFFFFF;}
	.st1{fill:none;stroke:#FFFFFF;stroke-width:4;stroke-miterlimit:10;}
</style>
<path class="st0" d="M125.9,116.8c-17,0-33.9,0-50.9,0c-1.4,0-1.9-0.3-1.8-1.8c0.1-7,0.1-14.1,0-21.1c-0.1-6.5,4.6-13.3,13.3-13.3
	c26.3,0.2,52.7,0.1,79,0.1c8.1,0,13.3,5.2,13.3,13.3c0,6.9,0,13.8,0,20.8c0,1.6-0.3,2-2,2C159.8,116.7,142.8,116.8,125.9,116.8z"/>
<path class="st1" d="M26.6,98.8c0-10,8-17.9,18-18c10,0,18.1,8.1,18.1,18.1c0,9.9-8.1,18-18,18C34.7,116.9,26.6,108.9,26.6,98.8z"/>
<g>
	<path class="st0" d="M11.7,141.5v-11.7c0-0.8,0.7-1.5,1.5-1.5h177.1c0.8,0,1.5,0.7,1.5,1.5v11.7c0,0.8-0.7,1.5-1.5,1.5H13.2
		C12.4,143,11.7,142.3,11.7,141.5z"/>
	<path class="st0" d="M13.2,154.1h-3c-0.8,0-1.5-0.7-1.5-1.5V49c0-0.8,0.7-1.5,1.5-1.5h3c0.8,0,1.5,0.7,1.5,1.5v103.6
		C14.7,153.4,14.1,154.1,13.2,154.1z"/>
	<path class="st0" d="M192.9,154.1h-3c-0.8,0-1.5-0.7-1.5-1.5V79.2c0-0.8,0.7-1.5,1.5-1.5h3c0.8,0,1.5,0.7,1.5,1.5v73.4
		C194.4,153.4,193.7,154.1,192.9,154.1z"/>
</g>
</svg>
