<?xml version="1.0" encoding="utf-8"?>
<!-- Generator: Adobe Illustrator 19.2.1, SVG Export Plug-In . SVG Version: 6.00 Build 0)  -->
<svg version="1.1" id="Layer_1" xmlns="http://www.w3.org/2000/svg" xmlns:xlink="http://www.w3.org/1999/xlink" x="0px" y="0px"
	 viewBox="0 0 200 200" style="enable-background:new 0 0 200 200;" xml:space="preserve">
<style type="text/css">
	.st0{fill:#FFFFFF;}
	.st1{fill:none;stroke:#FFFFFF;stroke-width:4;stroke-miterlimit:10;}
	.st2{fill-rule:evenodd;clip-rule:evenodd;fill:#FFFFFF;}
</style>
<path class="st0" d="M135.3,184c-11.5,0.2-23,0.4-34.5,0.8c-8.4,0.2-15.9-2.3-22.7-7c-5.9-4.1-11.1-9-16.3-13.9
	c-3.2-2.9-6.4-5.9-9.9-8.4c-10-7.2-20.8-9.7-32.7-5c-3.1,1.2-3.1,1.1-3.2-2.1c-0.2-8.6-0.3-17.2-0.7-25.8c-0.1-2,0.5-2.5,2.3-2.5
	c17.4-0.2,34.9-1.1,52.3-1.1c4.3,0,8,1.4,11.5,3.5c10.7,6.4,20.4,14.1,30.1,21.9c3.9,3.1,7.9,6.2,11.8,9.4c2,1.6,3.8,3.4,4.6,6
	c1.1,3.8-0.9,6.1-4.7,5.4c-5.6-1-10.6-3.6-15.6-6c-5.8-2.7-11.5-5.5-17.3-8.1c-1.5-0.7-3.1-1-4.6-1.5c-0.8-0.2-1.6-0.3-2.1,0.4
	c-0.6,0.8-0.4,1.6,0.1,2.4c1,1.7,2.6,2.9,4.3,3.9c9.8,5.9,20.2,10.4,31.6,12.3c14.1,2.4,28.4,3.2,42.6,4.1c4.5,0.3,9,0.6,13.4,1.6
	c1.7,0.4,3.5,0.9,5,1.9c1.3,0.8,2.1,1.9,2,3.6c-0.2,1.7-1.4,2.2-2.8,2.6c-3,0.9-6,1-9.1,1C159,183.3,135.3,183.8,135.3,184z"/>
<path class="st1" d="M133,153.6h36.5c8.4,0,15.2-6.8,15.2-15.2V51.7"/>
<path class="st1" d="M152.3,20.2h-51.3c-8.4,0-15.2,6.8-15.2,15.2v78.5"/>
<path class="st0" d="M186.4,51.2l-32.7-32.7c-1.2-1.2-3.3-0.4-3.3,1.4v32.8c0,1.1,0.9,2,2,2l32.7-0.1
	C186.8,54.6,187.6,52.5,186.4,51.2z"/>
<path class="st2" d="M101.4,77.7h70.1c0.5,0,1-0.9,1-2V75c0-1.1-0.4-2-1-2h-70.1c-0.5,0-1,0.9-1,2v0.7
	C100.4,76.8,100.8,77.7,101.4,77.7z"/>
<path class="st2" d="M101.4,93.7h70.1c0.5,0,1-0.9,1-2V91c0-1.1-0.4-2-1-2h-70.1c-0.5,0-1,0.9-1,2v0.7
	C100.4,92.8,100.8,93.7,101.4,93.7z"/>
<path class="st2" d="M101.4,109.7h70.1c0.5,0,1-0.9,1-2V107c0-1.1-0.4-2-1-2h-70.1c-0.5,0-1,0.9-1,2v0.7
	C100.4,108.8,100.8,109.7,101.4,109.7z"/>
</svg>
