<?xml version="1.0" encoding="utf-8"?>
<!-- Generator: Adobe Illustrator 19.2.1, SVG Export Plug-In . SVG Version: 6.00 Build 0)  -->
<svg version="1.1" id="Layer_1" xmlns="http://www.w3.org/2000/svg" xmlns:xlink="http://www.w3.org/1999/xlink" x="0px" y="0px"
	 viewBox="0 0 200 200" style="enable-background:new 0 0 200 200;" xml:space="preserve">
<style type="text/css">
	.st0{fill-rule:evenodd;clip-rule:evenodd;fill:#FFFFFF;}
	.st1{fill:none;stroke:#FFFFFF;stroke-width:4;stroke-miterlimit:10;}
</style>
<g>
	<line class="st0" x1="79.1" y1="62.1" x2="120.4" y2="62.1"/>
	<path class="st0" d="M52,100.7V178h95.6v-77.6l23.5,13.1l13.8-30.9l-32.1-17.9c-3.2-1.8-6.9-2.7-10.6-2.7l-16.7,0
		c0,0-24.5,27-51.4,0l-16.2,0c-3.7,0-7.3,0.9-10.6,2.7L15.2,82.7L29,113.5L52,100.7z"/>
</g>
<path class="st1" d="M100.4,48.8v-9.5c0-1.5,0.9-2.9,2.3-3.4c2.2-0.9,5.3-2.5,5.8-5.3c0.8-4.4-0.1-6.3-4-8.2
	c-3.1-1.5-7.8,0.9-7.8,0.9"/>
<path class="st1" d="M126.8,65.1l-24.5-16.4c-1.4-0.6-2.9-0.6-4.3,0L74,64.8"/>
</svg>
