<?xml version="1.0" encoding="utf-8"?>
<!-- Generator: Adobe Illustrator 19.2.1, SVG Export Plug-In . SVG Version: 6.00 Build 0)  -->
<svg version="1.1" id="Layer_1" xmlns="http://www.w3.org/2000/svg" xmlns:xlink="http://www.w3.org/1999/xlink" x="0px" y="0px"
	 viewBox="0 0 200 200" style="enable-background:new 0 0 200 200;" xml:space="preserve">
<style type="text/css">
	.st0{fill:#FFFFFF;}
</style>
<path class="st0" d="M139.6,9.3H60.4c-5.5,0-10,4.5-10,10v159.2c0,5.5,4.5,10,10,10h79.2c5.5,0,10-4.5,10-10V19.3
	C149.6,13.8,145.1,9.3,139.6,9.3z M91.8,18.6h16.4c1.1,0,1.9,0.9,1.9,1.9c0,1.1-0.9,1.9-1.9,1.9H91.8c-1.1,0-1.9-0.9-1.9-1.9
	C89.9,19.5,90.7,18.6,91.8,18.6z M100,183.8c-4.7,0-8.4-3.8-8.4-8.4c0-4.7,3.8-8.4,8.4-8.4c4.7,0,8.4,3.8,8.4,8.4
	C108.4,180,104.7,183.8,100,183.8z M139.5,162.6H60.5V45c0-5.9,4.8-10.7,10.7-10.7h57.5c5.9,0,10.7,4.8,10.7,10.7V162.6z"/>
<polygon class="st0" points="106.3,64 84.2,105.4 98.8,105.4 93.5,136 115.8,95.5 101.8,95.5 "/>
</svg>
