<?xml version="1.0" encoding="UTF-8"?>
<svg width="448px" height="222px" viewBox="0 0 448 222" version="1.1" xmlns="http://www.w3.org/2000/svg" xmlns:xlink="http://www.w3.org/1999/xlink">
    <!-- Generator: Sketch 40.3 (33839) - http://www.bohemiancoding.com/sketch -->
    <title>iPad Landscape</title>
    <desc>Created with Sketch.</desc>
    <defs></defs>
    <g id="Page-1" stroke="none" stroke-width="1" fill="none" fill-rule="evenodd">
        <g id="iPad-Landscape">
            <g id="Group-23">
                <polygon id="Rectangle-3-Copy-2" fill="#FAFBFC" points="0 3 448 3 448 219 0 219"></polygon>
                <rect id="Rectangle-3-Copy" fill="#F0F3F5" x="0" y="219" width="448" height="3"></rect>
                <text id="SENTIMENT" font-family="Gilroy-SemiBold, Gilroy" font-size="15" font-weight="500" fill="#4E5F71">
                    <tspan x="70.05" y="50">SENTIMENT</tspan>
                </text>
                <text id="Today-Previous-Overa" font-family="Gilroy-Light, Gilroy" font-size="15" font-weight="300" line-spacing="45" fill="#212123">
                    <tspan x="76.085" y="75">Today</tspan>
                    <tspan x="62.27" y="120">Previous</tspan>
                    <tspan x="70.445" y="165">Overall</tspan>
                </text>
                <rect id="Rectangle-3" fill="#F0F3F5" x="0" y="0" width="448" height="3"></rect>
                <rect id="Rectangle-38" fill="#E1E4E6" x="149" y="82" width="239" height="6"></rect>
                <rect id="Rectangle-38" fill="#4E5F71" x="149" y="82" width="118" height="6"></rect>
                <rect id="Rectangle-38" fill="#FAFBFC" x="267" y="82" width="3" height="6"></rect>
                <rect id="Rectangle-38" fill="#E1E4E6" x="149" y="127" width="239" height="6"></rect>
                <rect id="Rectangle-38" fill="#E1E4E6" x="149" y="172" width="239" height="6"></rect>
                <rect id="Rectangle-38" fill="#FAFBFC" x="267" y="127" width="3" height="6"></rect>
                <rect id="Rectangle-38" fill="#FAFBFC" x="267" y="172" width="3" height="6"></rect>
                <rect id="Rectangle-38-Copy" fill="#4E5F71" x="149" y="127" width="100" height="6"></rect>
                <rect id="Rectangle-38-Copy-2" fill="#4E5F71" x="149" y="172" width="118" height="6"></rect>
                <rect id="Rectangle-38-Copy-3" fill="#E50770" x="270" y="172" width="18" height="6"></rect>
                <rect id="Rectangle-38-Copy-4" fill="#E50770" x="270" y="82" width="42" height="6"></rect>
            </g>
        </g>
    </g>
</svg>