<?xml version="1.0" encoding="UTF-8" standalone="no"?><!DOCTYPE svg PUBLIC "-//W3C//DTD SVG 1.1//EN" "http://www.w3.org/Graphics/SVG/1.1/DTD/svg11.dtd"><svg width="254" height="110" viewBox="0 0 254 110" version="1.1" xmlns="http://www.w3.org/2000/svg" xmlns:xlink="http://www.w3.org/1999/xlink" xml:space="preserve" style="fill-rule:evenodd;clip-rule:evenodd;stroke-linejoin:round;stroke-miterlimit:1.41421;"><g><g><path d="M46.644,108.621l-13.744,0l0,-54.693l13.744,0l0,54.693ZM27.487,79.095l-8.471,0l0,29.526l-13.743,0l0,-29.526l-5.273,0l0,-6.749l5.554,-3.374l0,-0.668c0,-5.249 1.072,-9.022 3.216,-11.318c2.144,-2.297 5.583,-3.445 10.316,-3.445c1.828,0 3.556,0.141 5.185,0.422c1.629,0.281 3.521,0.773 5.677,1.476l-2.953,8.893c-1.687,-0.468 -3.339,-0.703 -4.956,-0.703c-1.054,0 -1.822,0.322 -2.302,0.967c-0.481,0.644 -0.721,1.693 -0.721,3.146l0,1.054l8.471,0l0,10.299Z" style="fill:#fff;fill-rule:nonzero;"/><path d="M94.167,88.621c0,6.514 -1.752,11.594 -5.255,15.237c-3.503,3.644 -8.407,5.466 -14.71,5.466c-6.046,0 -10.856,-1.863 -14.429,-5.589c-3.574,-3.726 -5.361,-8.764 -5.361,-15.114c0,-6.491 1.752,-11.535 5.255,-15.132c3.503,-3.597 8.419,-5.396 14.746,-5.396c3.913,0 7.369,0.832 10.369,2.496c2.999,1.664 5.313,4.048 6.942,7.153c1.629,3.105 2.443,6.731 2.443,10.879l0,0ZM68.367,88.621c0,3.421 0.457,6.028 1.371,7.821c0.914,1.792 2.448,2.689 4.604,2.689c2.133,0 3.638,-0.897 4.517,-2.689c0.879,-1.793 1.318,-4.4 1.318,-7.821c0,-3.398 -0.445,-5.964 -1.336,-7.698c-0.89,-1.734 -2.413,-2.601 -4.569,-2.601c-2.109,0 -3.62,0.861 -4.534,2.583c-0.914,1.723 -1.371,4.295 -1.371,7.716l0,0Z" style="fill:#fff;fill-rule:nonzero;"/><path d="M134.835,108.621l-4.499,-18.981l-1.054,-5.729l-0.703,-4.605l-0.211,0c-1.148,6.561 -1.922,10.697 -2.32,12.408l-4.042,16.907l-14.447,0l-10.861,-39.825l13.532,0l3.234,15.291c1.031,5.249 1.629,9.607 1.793,13.075l0.211,0c0.07,-2.156 0.714,-6.256 1.933,-12.302l3.691,-16.064l15.185,0l3.374,16.275c1.078,5.179 1.757,9.209 2.039,12.091l0.211,0c0.14,-1.781 0.375,-4.001 0.703,-6.661c0.328,-2.659 0.691,-4.798 1.089,-6.414l3.515,-15.291l13.252,0l-10.932,39.825l-14.693,0l0,0Z" style="fill:#fff;fill-rule:nonzero;"/><path d="M161.479,102.786c0,-2.156 0.639,-3.819 1.916,-4.991c1.277,-1.172 3.134,-1.757 5.571,-1.757c2.32,0 4.101,0.585 5.343,1.757c1.242,1.172 1.863,2.835 1.863,4.991c0,2.109 -0.639,3.756 -1.916,4.939c-1.277,1.183 -3.04,1.775 -5.29,1.775c-2.32,0 -4.148,-0.586 -5.483,-1.758c-1.336,-1.171 -2.004,-2.823 -2.004,-4.956Z" style="fill:#fff;fill-rule:nonzero;"/></g><path d="M192.444,83.307c-15.29,-6.745 -25.974,-22.042 -25.974,-39.815c0,-24.004 19.489,-43.492 43.493,-43.492c24.004,0 43.492,19.488 43.492,43.492c0,24.004 -19.488,43.493 -43.492,43.493c-1.364,0 -2.713,-0.063 -4.045,-0.186c-6.332,11.046 -20.582,12.379 -20.582,12.379c6.325,-3.301 7.203,-11.137 7.108,-15.871l0,0Z" style="fill:#e50770;"/><g><path d="M207.832,58.85l-1.648,-3.295l-0.176,0c-1.157,1.435 -2.336,2.417 -3.537,2.944c-1.201,0.527 -2.753,0.791 -4.657,0.791c-2.343,0 -4.189,-0.703 -5.536,-2.109c-1.348,-1.406 -2.021,-3.383 -2.021,-5.932c0,-2.651 0.922,-4.624 2.768,-5.92c1.845,-1.296 4.518,-2.025 8.018,-2.186l4.152,-0.132l0,-0.352c0,-2.05 -1.01,-3.075 -3.031,-3.075c-1.816,0 -4.123,0.615 -6.92,1.845l-2.483,-5.668c2.9,-1.494 6.562,-2.241 10.985,-2.241c3.192,0 5.664,0.791 7.414,2.373c1.75,1.582 2.625,3.793 2.625,6.635l0,16.322l-5.953,0l0,0ZM201.461,53.226c1.04,0 1.929,-0.329 2.669,-0.988c0.74,-0.659 1.109,-1.516 1.109,-2.571l0,-1.933l-1.977,0.088c-2.826,0.103 -4.24,1.142 -4.24,3.12c0,1.523 0.813,2.284 2.439,2.284Z" style="fill:#fff;fill-rule:nonzero;"/><path d="M228.263,58.85l-8.59,0l0,-24.89l8.59,0l0,24.89ZM219.453,27.765c0,-1.289 0.359,-2.248 1.077,-2.878c0.717,-0.63 1.874,-0.945 3.471,-0.945c1.596,0 2.76,0.322 3.493,0.967c0.732,0.644 1.098,1.596 1.098,2.856c0,2.519 -1.53,3.778 -4.591,3.778c-3.032,0 -4.548,-1.259 -4.548,-3.778Z" style="fill:#fff;fill-rule:nonzero;"/></g></g></svg>