<?xml version="1.0" encoding="UTF-8" standalone="no"?>
<svg width="54px" height="54px" viewBox="0 0 300 300" version="1.1" xmlns="http://www.w3.org/2000/svg" xmlns:xlink="http://www.w3.org/1999/xlink">
    <!-- Generator: Sketch 3.6.1 (26313) - http://www.bohemiancoding.com/sketch -->
    <title>iPhone 6 Copy</title>
    <desc>Created with Sketch.</desc>
    <defs></defs>
    <g id="Page-1" stroke="none" stroke-width="1" fill="none" fill-rule="evenodd">
        <g id="iPhone-6-Copy">
            <g id="ic_assessment">
                <path d="M0,0 L300,0 L300,300 L0,300 L0,0 Z" id="Bounds" fill-opacity="0" fill="#FF0000"></path>
                <path d="M237.5,37.5 L62.5,37.5 C48.75,37.5 37.5,48.75 37.5,62.5 L37.5,237.5 C37.5,251.25 48.75,262.5 62.5,262.5 L237.5,262.5 C251.25,262.5 262.5,251.25 262.5,237.5 L262.5,62.5 C262.5,48.75 251.25,37.5 237.5,37.5 L237.5,37.5 Z M112.5,212.5 L87.5,212.5 L87.5,125 L112.5,125 L112.5,212.5 L112.5,212.5 Z M162.5,212.5 L137.5,212.5 L137.5,87.5 L162.5,87.5 L162.5,212.5 L162.5,212.5 Z M212.5,212.5 L187.5,212.5 L187.5,162.5 L212.5,162.5 L212.5,212.5 L212.5,212.5 Z" id="Shape" fill="#E50770"></path>
            </g>
        </g>
    </g>
</svg>