<?xml version="1.0" encoding="UTF-8" standalone="no"?>
<svg width="54px" height="54px" viewBox="0 0 300 300" version="1.1" xmlns="http://www.w3.org/2000/svg" xmlns:xlink="http://www.w3.org/1999/xlink">
    <!-- Generator: Sketch 3.6.1 (26313) - http://www.bohemiancoding.com/sketch -->
    <title>iPad Landscape</title>
    <desc>Created with Sketch.</desc>
    <defs></defs>
    <g id="Page-1" stroke="none" stroke-width="1" fill="none" fill-rule="evenodd">
        <g id="iPad-Landscape" fill="#999999">
            <path d="M38,221.256098 C41.6585366,221.621951 45.3170732,221.804878 48.9756098,221.804878 C70.4389634,221.804878 89.5853659,215.219512 106.414634,202.04878 C96.4145732,201.926768 87.4511585,198.87811 79.5243902,192.902439 C71.597622,186.926768 66.1707317,179.304939 63.2439024,170.036585 C65.6828659,170.524451 68.5487805,170.768293 71.8414634,170.768293 C76.1096951,170.768293 80.1951829,170.219512 84.097561,169.121951 C73.3657927,167.048841 64.4938415,161.774329 57.4817073,153.29878 C50.4695183,144.823232 46.9634146,135.036646 46.9634146,123.939024 L46.9634146,123.390244 C53.4268232,127.04878 60.4390854,128.938963 68,129.060976 C61.6584756,124.914573 56.6279878,119.457317 52.9085366,112.689024 C49.1890305,105.920732 47.3292683,98.5731098 47.3292683,90.6463415 C47.3292683,82.3537195 49.4634207,74.6096951 53.7317073,67.4146341 C65.1951829,81.6829268 79.1890854,93.054939 95.7134146,101.530488 C112.237744,110.006037 129.95128,114.731768 148.853659,115.707317 C147.999939,111.682927 147.573171,108.146402 147.573171,105.097561 C147.573171,92.4146951 152.085427,81.5609146 161.109756,72.5365854 C170.134085,63.5122561 181.04878,59 193.853659,59 C207.146402,59 218.365854,63.8781098 227.512195,73.6341463 C238.121951,71.4390244 247.877439,67.6584756 256.780488,62.2926829 C253.365244,73.3903049 246.659146,81.9267683 236.658537,87.902439 C245.561585,86.804878 254.342073,84.3659146 263,80.5853659 C257.146341,89.7317073 249.52378,97.7195732 240.134146,104.54878 L240.134146,110.585366 C240.134146,122.902378 238.335976,135.249939 234.737805,147.628049 C231.139634,160.006159 225.651829,171.835305 218.27439,183.115854 C210.896402,194.396402 202.085366,204.426829 191.841463,213.207317 C181.597561,221.987805 169.310915,228.969518 154.981707,234.152439 C140.6525,239.33536 125.256098,241.926829 108.792683,241.926829 C83.304939,241.926829 59.707378,235.036579 38,221.256098 L38,221.256098 Z" id="Page-1"></path>
        </g>
    </g>
</svg>