<?xml version="1.0" standalone="no"?><!DOCTYPE svg PUBLIC "-//W3C//DTD SVG 1.1//EN" "http://www.w3.org/Graphics/SVG/1.1/DTD/svg11.dtd"><svg width="24px" height="24px" viewBox="0 0 24 24" version="1.1" xmlns="http://www.w3.org/2000/svg" xmlns:xlink="http://www.w3.org/1999/xlink" xml:space="preserve" style="fill-rule:evenodd;clip-rule:evenodd;stroke-linejoin:round;stroke-miterlimit:1.41421;"><g><clipPath id="_clip1"><path d="M8.202,11.146c1.017,1.998 2.654,3.628 4.652,4.652l1.553,-1.553c0.191,-0.191 0.473,-0.254 0.72,-0.17c0.791,0.261 1.645,0.403 2.52,0.403c0.388,0 0.706,0.317 0.706,0.706l0,2.463c0,0.388 -0.318,0.706 -0.706,0.706c-6.628,0 -12,-5.372 -12,-12c0,-0.388 0.318,-0.706 0.706,-0.706l2.471,0c0.388,0 0.705,0.318 0.705,0.706c0,0.882 0.142,1.729 0.403,2.52c0.077,0.247 0.021,0.522 -0.177,0.72l-1.553,1.553Z"/></clipPath><g clip-path="url(#_clip1)"><rect x="2.118" y="2.118" width="19.765" height="19.765" style="fill:#02a2fa;fill-rule:nonzero;"/></g></g></svg>