<?xml version="1.0" encoding="UTF-8" standalone="no"?>
<svg width="54px" height="54px" viewBox="0 0 300 300" version="1.1" xmlns="http://www.w3.org/2000/svg" xmlns:xlink="http://www.w3.org/1999/xlink">
    <!-- Generator: Sketch 3.6.1 (26313) - http://www.bohemiancoding.com/sketch -->
    <title>iPhone 6 Copy</title>
    <desc>Created with Sketch.</desc>
    <defs></defs>
    <g id="Page-1" stroke="none" stroke-width="1" fill="none" fill-rule="evenodd">
        <g id="iPhone-6-Copy">
            <g id="ic_settings">
                <path d="M0,0 L300,0 L300,300 L0,300 L0,0 Z" id="Bounds" fill-opacity="0" fill="#FF0000"></path>
                <path d="M242.875,162.25 C243.375,158.25 243.75,154.25 243.75,150 C243.75,145.75 243.375,141.75 242.875,137.75 L269.25,117.125 C271.625,115.25 272.25,111.875 270.75,109.125 L245.75,65.875 C244.25,63.125 240.875,62.125 238.125,63.125 L207,75.625 C200.5,70.625 193.5,66.5 185.875,63.375 L181.125,30.25 C180.75,27.25 178.125,25 175,25 L125,25 C121.875,25 119.25,27.25 118.875,30.25 L114.125,63.375 C106.5,66.5 99.5,70.75 93,75.625 L61.875,63.125 C59,62 55.75,63.125 54.25,65.875 L29.25,109.125 C27.625,111.875 28.375,115.25 30.75,117.125 L57.125,137.75 C56.625,141.75 56.25,145.875 56.25,150 C56.25,154.125 56.625,158.25 57.125,162.25 L30.75,182.875 C28.375,184.75 27.75,188.125 29.25,190.875 L54.25,234.125 C55.75,236.875 59.125,237.875 61.875,236.875 L93,224.375 C99.5,229.375 106.5,233.5 114.125,236.625 L118.875,269.75 C119.25,272.75 121.875,275 125,275 L175,275 C178.125,275 180.75,272.75 181.125,269.75 L185.875,236.625 C193.5,233.5 200.5,229.25 207,224.375 L238.125,236.875 C241,238 244.25,236.875 245.75,234.125 L270.75,190.875 C272.25,188.125 271.625,184.75 269.25,182.875 L242.875,162.25 L242.875,162.25 Z M150,193.75 C125.875,193.75 106.25,174.125 106.25,150 C106.25,125.875 125.875,106.25 150,106.25 C174.125,106.25 193.75,125.875 193.75,150 C193.75,174.125 174.125,193.75 150,193.75 L150,193.75 Z" id="Shape" fill="#E50770"></path>
            </g>
        </g>
    </g>
</svg>