<?xml version="1.0" encoding="UTF-8" standalone="no"?>
<svg width="54px" height="54px" viewBox="0 0 300 300" version="1.1" xmlns="http://www.w3.org/2000/svg" xmlns:xlink="http://www.w3.org/1999/xlink">
    <!-- Generator: Sketch 3.6.1 (26313) - http://www.bohemiancoding.com/sketch -->
    <title>iPad Landscape</title>
    <desc>Created with Sketch.</desc>
    <defs></defs>
    <g id="Page-1" stroke="none" stroke-width="1" fill="none" fill-rule="evenodd">
        <g id="iPad-Landscape">
            <g id="ic_laptop_mac">
                <path d="M0,0 L300,0 L300,300 L0,300 L0,0 Z" id="Bounds" fill-opacity="0" fill="#FF0000"></path>
                <path d="M250,225 C263.75,225 274.875,213.75 274.875,200 L275,62.5 C275,48.75 263.75,37.5 250,37.5 L50,37.5 C36.25,37.5 25,48.75 25,62.5 L25,200 C25,213.75 36.25,225 50,225 L0,225 C0,238.75 11.25,250 25,250 L275,250 C288.75,250 300,238.75 300,225 L250,225 L250,225 Z M50,62.5 L250,62.5 L250,200 L50,200 L50,62.5 L50,62.5 Z M150,237.5 C143.125,237.5 137.5,231.875 137.5,225 C137.5,218.125 143.125,212.5 150,212.5 C156.875,212.5 162.5,218.125 162.5,225 C162.5,231.875 156.875,237.5 150,237.5 L150,237.5 Z" id="Shape" fill="#999999"></path>
            </g>
        </g>
    </g>
</svg>