<?xml version="1.0" encoding="UTF-8" standalone="no"?>
<svg width="54px" height="54px" viewBox="0 0 300 300" version="1.1" xmlns="http://www.w3.org/2000/svg" xmlns:xlink="http://www.w3.org/1999/xlink">
    <!-- Generator: Sketch 3.6.1 (26313) - http://www.bohemiancoding.com/sketch -->
    <title>iPad Landscape</title>
    <desc>Created with Sketch.</desc>
    <defs></defs>
    <g id="Page-1" stroke="none" stroke-width="1" fill="none" fill-rule="evenodd">
        <g id="iPad-Landscape">
            <g id="ic_local_post_office">
                <path d="M0,0 L300,0 L300,300 L0,300 L0,0 Z" id="Bounds" fill-opacity="0" fill="#FF0000"></path>
                <path d="M250,50 L50,50 C36.25,50 25.125,61.25 25.125,75 L25,225 C25,238.75 36.25,250 50,250 L250,250 C263.75,250 275,238.75 275,225 L275,75 C275,61.25 263.75,50 250,50 L250,50 Z M250,100 L150,162.5 L50,100 L50,75 L150,137.5 L250,75 L250,100 L250,100 Z" id="Shape" fill="#999999"></path>
            </g>
        </g>
    </g>
</svg>