<?xml version="1.0" encoding="UTF-8" standalone="no"?>
<svg width="54px" height="54px" viewBox="0 0 300 300" version="1.1" xmlns="http://www.w3.org/2000/svg" xmlns:xlink="http://www.w3.org/1999/xlink">
    <!-- Generator: Sketch 3.6.1 (26313) - http://www.bohemiancoding.com/sketch -->
    <title>iPad Landscape</title>
    <desc>Created with Sketch.</desc>
    <defs></defs>
    <g id="Page-1" stroke="none" stroke-width="1" fill="none" fill-rule="evenodd">
        <g id="iPad-Landscape" fill="#999999">
            <g id="Page-1" transform="translate(17.000000, 17.000000)">
                <path d="M163.3535,266.894 L14.73,266.894 C6.593,266.894 0,260.299 0,252.164 L0,14.73 C0,6.594 6.593,0 14.73,0 L252.164,0 C260.297,0 266.893,6.593 266.893,14.73 L266.893,252.165 C266.893,260.299 260.298,266.895 252.164,266.895 L252.164,266.894 L163.3535,266.894 L142.555,266.894 L142.555,163.539 L107.774,163.539 L107.774,123.259 L142.555,123.259 L142.555,93.554 C142.555,59.081 163.609,40.31 194.362,40.31 C209.091,40.31 221.753,41.407 225.442,41.897 L225.442,77.923 L204.113,77.933 C187.389,77.933 184.151,85.88 184.151,97.542 L184.151,123.259 L224.038,123.259 L218.844,163.539 L184.152,163.539 L184.152,266.895 L184.152,266.894 L163.3535,266.894 Z" id="Combined-Shape"></path>
            </g>
        </g>
    </g>
</svg>