<?xml version="1.0" encoding="UTF-8" standalone="no"?>
<svg width="54px" height="54px" viewBox="0 0 300 300" version="1.1" xmlns="http://www.w3.org/2000/svg" xmlns:xlink="http://www.w3.org/1999/xlink">
    <!-- Generator: Sketch 3.6.1 (26313) - http://www.bohemiancoding.com/sketch -->
    <title>iPad Pro Portrait</title>
    <desc>Created with Sketch.</desc>
    <defs></defs>
    <g id="Page-1" stroke="none" stroke-width="1" fill="none" fill-rule="evenodd">
        <g id="iPad-Pro-Portrait">
            <g id="ic_sms">
                <path d="M0,0 L300,0 L300,300 L0,300 L0,0 Z" id="Bounds" fill-opacity="0" fill="#FF0000"></path>
                <path d="M250,25 L50,25 C36.25,25 25.125,36.25 25.125,50 L25,275 L75,225 L250,225 C263.75,225 275,213.75 275,200 L275,50 C275,36.25 263.75,25 250,25 L250,25 Z M112.5,137.5 L87.5,137.5 L87.5,112.5 L112.5,112.5 L112.5,137.5 L112.5,137.5 Z M162.5,137.5 L137.5,137.5 L137.5,112.5 L162.5,112.5 L162.5,137.5 L162.5,137.5 Z M212.5,137.5 L187.5,137.5 L187.5,112.5 L212.5,112.5 L212.5,137.5 L212.5,137.5 Z" id="Shape" fill="#E50770"></path>
            </g>
        </g>
    </g>
</svg>