<?xml version="1.0" encoding="utf-8"?>
<!-- Generator: Adobe Illustrator 15.1.0, SVG Export Plug-In . SVG Version: 6.00 Build 0)  -->
<!DOCTYPE svg PUBLIC "-//W3C//DTD SVG 1.1//EN" "http://www.w3.org/Graphics/SVG/1.1/DTD/svg11.dtd">
<svg version="1.1" id="Layer_1" xmlns="http://www.w3.org/2000/svg" xmlns:xlink="http://www.w3.org/1999/xlink" x="0px" y="0px"
	 width="141px" height="30px" viewBox="0 0 141 30" enable-background="new 0 0 141 30" xml:space="preserve">
<g>
	<defs>
		<rect id="SVGID_1_" width="140.502" height="30"/>
	</defs>
	<clipPath id="SVGID_2_">
		<use xlink:href="#SVGID_1_"  overflow="visible"/>
	</clipPath>
	<path clip-path="url(#SVGID_2_)" fill="#7C7B7B" d="M49.593,17.285l-0.842,2.357h-0.047c-0.151-0.553-0.403-1.336-0.798-2.332
		L43.398,6.004h-4.407V23.98h2.906V12.93c0-0.682-0.015-1.506-0.043-2.45c-0.015-0.478-0.069-0.859-0.082-1.151h0.063
		c0.148,0.678,0.301,1.194,0.412,1.539l5.405,13.112h2.033L55.05,10.75c0.122-0.302,0.251-0.891,0.37-1.42h0.063
		c-0.07,1.31-0.13,2.507-0.138,3.229V23.98h3.101V6.004h-4.232L49.593,17.285z"/>
	<rect x="61.365" y="11.098" clip-path="url(#SVGID_2_)" fill="#7C7B7B" width="3.03" height="12.882"/>
	<path clip-path="url(#SVGID_2_)" fill="#7C7B7B" d="M62.911,5.624c-0.5,0-0.934,0.17-1.291,0.506
		c-0.359,0.337-0.541,0.763-0.541,1.264c0,0.493,0.179,0.91,0.535,1.239c0.353,0.328,0.79,0.494,1.297,0.494
		s0.945-0.166,1.303-0.493c0.359-0.329,0.542-0.746,0.542-1.239c0-0.484-0.178-0.904-0.527-1.25
		C63.879,5.799,63.436,5.624,62.911,5.624"/>
	<path clip-path="url(#SVGID_2_)" fill="#7C7B7B" d="M75.123,10.969c-0.584-0.12-1.152-0.181-1.693-0.181
		c-1.391,0-2.63,0.298-3.685,0.886c-1.057,0.588-1.875,1.429-2.431,2.499c-0.554,1.067-0.835,2.313-0.835,3.702
		c0,1.217,0.273,2.334,0.812,3.318c0.539,0.986,1.301,1.758,2.267,2.293c0.965,0.533,2.079,0.805,3.312,0.805
		c1.441,0,2.672-0.287,3.656-0.855l0.041-0.023v-2.775l-0.127,0.092c-0.447,0.326-0.947,0.586-1.482,0.771
		c-0.537,0.189-1.025,0.283-1.453,0.283c-1.189,0-2.143-0.371-2.836-1.105c-0.694-0.734-1.046-1.766-1.046-3.063
		c0-1.307,0.366-2.366,1.09-3.146c0.722-0.778,1.677-1.173,2.841-1.173c0.998,0,1.969,0.338,2.887,1.003l0.127,0.092v-2.925
		l-0.041-0.023C76.18,11.25,75.707,11.091,75.123,10.969"/>
	<path clip-path="url(#SVGID_2_)" fill="#7C7B7B" d="M85.107,10.875c-0.76,0-1.443,0.245-2.027,0.727
		c-0.512,0.423-0.881,1.003-1.164,1.728h-0.033v-2.231h-3.029V23.98h3.029v-6.59c0-1.121,0.254-2.041,0.756-2.736
		c0.494-0.687,1.154-1.035,1.959-1.035c0.273,0,0.58,0.045,0.912,0.134c0.328,0.088,0.564,0.185,0.707,0.286l0.127,0.092v-3.055
		l-0.049-0.021C86.014,10.936,85.613,10.875,85.107,10.875"/>
	<path clip-path="url(#SVGID_2_)" fill="#7C7B7B" d="M93.338,10.788c-2.125,0-3.813,0.623-5.014,1.85
		c-1.203,1.227-1.813,2.927-1.813,5.049c0,2.018,0.596,3.641,1.768,4.822c1.174,1.182,2.771,1.781,4.748,1.781
		c2.059,0,3.713-0.631,4.914-1.875c1.203-1.244,1.813-2.926,1.813-5.002c0-2.048-0.572-3.683-1.699-4.856
		C96.926,11.383,95.34,10.788,93.338,10.788 M95.746,20.707c-0.568,0.715-1.424,1.076-2.545,1.076c-1.113,0-1.99-0.369-2.609-1.098
		c-0.623-0.73-0.939-1.771-0.939-3.096c0-1.365,0.316-2.436,0.939-3.179c0.619-0.739,1.488-1.114,2.584-1.114
		c1.064,0,1.912,0.358,2.518,1.065c0.609,0.709,0.918,1.771,0.918,3.153C96.611,18.914,96.32,19.988,95.746,20.707"/>
	<path clip-path="url(#SVGID_2_)" fill="#7C7B7B" d="M106.475,16.422c-0.955-0.385-1.566-0.702-1.818-0.946
		c-0.244-0.236-0.367-0.57-0.367-0.993c0-0.375,0.152-0.675,0.467-0.918c0.313-0.244,0.754-0.369,1.305-0.369
		c0.51,0,1.033,0.081,1.553,0.239s0.977,0.37,1.357,0.629l0.127,0.085V11.35l-0.051-0.021c-0.352-0.15-0.814-0.28-1.377-0.384
		c-0.561-0.104-1.068-0.156-1.51-0.156c-1.447,0-2.643,0.37-3.555,1.099c-0.918,0.732-1.385,1.694-1.385,2.858
		c0,0.604,0.102,1.142,0.299,1.597c0.199,0.457,0.508,0.859,0.918,1.197c0.404,0.336,1.031,0.686,1.863,1.043
		c0.699,0.287,1.219,0.531,1.551,0.723c0.322,0.188,0.553,0.377,0.682,0.561c0.127,0.18,0.191,0.426,0.191,0.73
		c0,0.867-0.648,1.287-1.982,1.287c-0.494,0-1.059-0.104-1.676-0.307c-0.619-0.203-1.197-0.496-1.719-0.871l-0.127-0.092v2.953
		l0.047,0.021c0.434,0.201,0.982,0.369,1.627,0.502s1.229,0.201,1.736,0.201c1.568,0,2.83-0.371,3.752-1.104
		c0.928-0.738,1.396-1.723,1.396-2.926c0-0.869-0.252-1.613-0.752-2.215C108.533,17.451,107.674,16.904,106.475,16.422"/>
	<path clip-path="url(#SVGID_2_)" fill="#7C7B7B" d="M117.928,10.788c-2.125,0-3.811,0.623-5.014,1.85
		c-1.203,1.227-1.813,2.927-1.813,5.049c0,2.018,0.596,3.641,1.77,4.822s2.77,1.781,4.746,1.781c2.059,0,3.713-0.631,4.916-1.875
		c1.201-1.244,1.811-2.926,1.811-5.002c0-2.048-0.57-3.683-1.699-4.856C121.516,11.383,119.928,10.788,117.928,10.788
		 M120.338,20.707c-0.57,0.715-1.426,1.076-2.547,1.076c-1.113,0-1.992-0.369-2.609-1.098c-0.623-0.73-0.938-1.771-0.938-3.096
		c0-1.365,0.316-2.436,0.938-3.179c0.619-0.739,1.488-1.114,2.584-1.114c1.064,0,1.91,0.358,2.518,1.065
		c0.609,0.709,0.92,1.771,0.92,3.153C121.203,18.914,120.91,19.988,120.338,20.707"/>
	<path clip-path="url(#SVGID_2_)" fill="#7C7B7B" d="M140.502,13.57v-2.472h-3.068V7.256l-0.104,0.032l-2.883,0.882l-0.057,0.018
		v2.91h-4.547V9.477c0-0.754,0.168-1.333,0.502-1.717c0.33-0.382,0.803-0.575,1.406-0.575c0.432,0,0.881,0.102,1.334,0.304
		l0.111,0.05V4.935l-0.053-0.019c-0.42-0.151-0.994-0.228-1.703-0.228c-0.896,0-1.709,0.196-2.418,0.581
		c-0.711,0.387-1.27,0.938-1.66,1.641c-0.389,0.701-0.588,1.51-0.588,2.405v1.783h-2.137v2.472h2.137V23.98h3.068V13.57h4.547v6.616
		c0,2.725,1.285,4.105,3.82,4.105c0.416,0,0.854-0.049,1.301-0.145c0.457-0.098,0.768-0.197,0.949-0.301l0.041-0.023v-2.494
		l-0.125,0.082c-0.166,0.111-0.373,0.203-0.617,0.27c-0.244,0.068-0.447,0.104-0.605,0.104c-0.594,0-1.033-0.16-1.307-0.477
		c-0.275-0.318-0.414-0.875-0.414-1.654V13.57H140.502z"/>
	<rect clip-path="url(#SVGID_2_)" fill="#E95A0C" width="14.255" height="14.255"/>
	<rect x="15.739" clip-path="url(#SVGID_2_)" fill="#93C01F" width="14.255" height="14.254"/>
	<rect y="15.745" clip-path="url(#SVGID_2_)" fill="#009EE2" width="14.255" height="14.255"/>
	<rect x="15.739" y="15.745" clip-path="url(#SVGID_2_)" fill="#FCC200" width="14.255" height="14.255"/>
</g>
</svg>
