<?xml version="1.0" encoding="utf-8"?>
<!-- Generator: Adobe Illustrator 19.2.1, SVG Export Plug-In . SVG Version: 6.00 Build 0)  -->
<svg version="1.1" id="Layer_1" xmlns="http://www.w3.org/2000/svg" xmlns:xlink="http://www.w3.org/1999/xlink" x="0px" y="0px"
	 viewBox="0 0 500 500" style="enable-background:new 0 0 500 500;" xml:space="preserve">
<style type="text/css">
	.st0{fill:#FFFFFF;}
</style>
<g>
	<path id="XMLID_4_" class="st0" d="M357.3,394.6c0.1-2.2,0.3-3.7,0.3-5.2c0-62.8,0.2-125.6-0.3-188.5c-0.1-13.5-1.7-27.3-4.8-40.4
		c-6-25.2-23.1-38.2-49-39.9c-27.3-1.8-53.5,3.4-79,12.9c-23,8.6-44.7,20-65.8,32.5c-2.6,1.6-4.2,3.2-4.2,6.7
		c0.2,72.4,0.2,144.7,0.2,217.1c0,1.3,0.1,2.7,0.3,4.7c2,0,3.8,0,5.6,0c15.3,0,30.6,0,46,0c8.2,0,10.6,2.4,10.6,10.7
		c0,14.6,0,29.3,0,43.9c0,8.8-2.2,11-10.8,11c-58.2,0-116.4-0.1-174.7-0.1c-7.9,0-10.3-2.4-10.3-10.4c0-14.8,0-29.6,0-44.4
		c0-8.2,2.4-10.6,10.7-10.6c15.2,0,30.3,0,45.5,0c1.8,0,3.7,0,5.8,0c0-87.3,0-174.2,0-261.6c-9,1.2-17.7,2.3-26.4,3.5
		c-10.3,1.4-20.6,2.9-30.8,4.3c-5,0.7-8.4-1.5-9.3-6.4c-2.8-15.1-5.4-30.1-7.9-45.2c-0.9-5.7,2.2-8.4,8.7-9.2
		C32,78,46.5,76.6,60.5,73.4c14.1-3.2,26.5-10.3,36-21.8c7-8.5,16.3-12.5,27.5-11.7c13.6,0.9,23.7,8.3,27.2,21.5
		c1.8,6.7,2.4,13.7,3.2,20.6c0.4,3.8,0.1,7.8,0.1,12.5c5.2-2.4,9.8-4.4,14.4-6.5c28.3-13.1,57.2-24.4,88.1-30
		c29.1-5.3,58-4.7,86.3,4.1c44.9,13.8,72.3,43.4,80.8,90.1c3.7,20.2,4.5,40.6,4.6,61c0.1,58.2,0,116.4,0,174.7c0,2,0,4.1,0,6.9
		c2,0,3.8,0,5.6,0c15.3,0,30.6,0,46,0c8.2,0,10.7,2.4,10.7,10.7c0.1,14.8,0.1,29.6,0,44.4c0,8.2-2.4,10.5-10.8,10.5
		c-58.1,0-116.1,0-174.2,0c-8.7,0-10.8-2.2-10.9-10.9c0-14.8,0-29.6,0-44.4c0-7.9,2.4-10.3,10.4-10.3
		C322.8,394.6,339.8,394.6,357.3,394.6z"/>
	<path id="XMLID_3_" class="st0" d="M209,223.9c14.3,0,26,11.6,26,25.9c0.1,14.5-11.8,26.3-26.3,26.2c-14.3-0.1-25.8-11.8-25.8-26.2
		C183,235.6,194.7,224,209,223.9z"/>
	<path id="XMLID_2_" class="st0" d="M305,223.9c14.3,0,26,11.6,26,25.9c0.1,14.5-11.8,26.3-26.3,26.1c-14.3-0.1-25.8-11.9-25.8-26.2
		C279,235.5,290.7,223.9,305,223.9z"/>
</g>
</svg>
