<?xml version="1.0" encoding="UTF-8" standalone="no"?>
<svg width="84px" height="37px" viewBox="0 0 84 37" version="1.1" xmlns="http://www.w3.org/2000/svg" xmlns:xlink="http://www.w3.org/1999/xlink">
    <!-- Generator: Sketch 39.1 (31720) - http://www.bohemiancoding.com/sketch -->
    <title>logo</title>
    <desc>Created with Sketch.</desc>
    <defs></defs>
    <g id="Page-1" stroke="none" stroke-width="1" fill="none" fill-rule="evenodd">
        <g id="logo">
            <path d="M15.8246421,36.3857843 L11.3192642,36.3857843 L11.3192642,18.5093137 L15.8246421,18.5093137 L15.8246421,36.3857843 L15.8246421,36.3857843 L15.8246421,36.3857843 L15.8246421,36.3857843 Z M9.5449398,26.7352941 L6.76816388,26.7352941 L6.76816388,36.3857843 L2.26229431,36.3857843 L2.26229431,26.7352941 L0.534183946,26.7352941 L0.534183946,24.5294118 L2.35472241,23.4264706 L2.35472241,23.2078431 C2.35472241,21.4921569 2.70624415,20.2593137 3.40928763,19.5088235 C4.11183946,18.7578431 5.23916722,18.3828431 6.79077926,18.3828431 C7.39008696,18.3828431 7.95694649,18.4284314 8.49037458,18.5205882 C9.02429431,18.6122549 9.64474247,18.7735294 10.3517191,19.0029412 L9.38368227,21.9098039 C8.83058863,21.7568627 8.28880268,21.679902 7.75881605,21.679902 C7.41319398,21.679902 7.16147492,21.7852941 7.0041505,21.9960784 C6.84682609,22.2068627 6.76816388,22.5495098 6.76816388,23.0240196 L6.76816388,23.3691176 L9.5449398,23.3691176 L9.5449398,26.7352941 L9.5449398,26.7352941 L9.5449398,26.7352941 L9.5449398,26.7352941 Z" id="Shape" fill="#FFFFFF"></path>
            <path d="M31.4036923,29.8485294 C31.4036923,31.9779412 30.8294582,33.6382353 29.68099,34.8294118 C28.5325217,36.020098 26.9253545,36.6156863 24.858505,36.6156863 C22.876709,36.6156863 21.3000234,36.0068627 20.1284482,34.7887255 C18.9573645,33.5710784 18.3713311,31.9245098 18.3713311,29.8485294 C18.3713311,27.7269608 18.9455652,26.0784314 20.0940334,24.9029412 C21.2425017,23.7269608 22.853602,23.1392157 24.9278261,23.1392157 C26.2105117,23.1392157 27.3437391,23.4112745 28.3270167,23.954902 C29.3102943,24.4985294 30.068893,25.2779412 30.6028127,26.2926471 C31.1367324,27.3078431 31.4036923,28.4931373 31.4036923,29.8485294 L31.4036923,29.8485294 L31.4036923,29.8485294 L31.4036923,29.8485294 Z M22.9460301,29.8485294 C22.9460301,30.9671569 23.0954883,31.8191176 23.395388,32.404902 C23.694796,32.9911765 24.1982341,33.2838235 24.9047191,33.2838235 C25.6038294,33.2838235 26.0974348,32.9911765 26.3855351,32.404902 C26.6736355,31.8191176 26.8176856,30.9671569 26.8176856,29.8485294 C26.8176856,28.7382353 26.6716689,27.8995098 26.3796355,27.3328431 C26.087602,26.7656863 25.5885886,26.4823529 24.881612,26.4823529 C24.1903679,26.4823529 23.694796,26.7637255 23.395388,27.3269608 C23.0954883,27.8897059 22.9460301,28.7303922 22.9460301,29.8485294 L22.9460301,29.8485294 L22.9460301,29.8485294 L22.9460301,29.8485294 Z" id="Shape" fill="#FFFFFF"></path>
            <path d="M44.7354615,36.3857843 L43.2605452,30.1818627 L42.9149231,28.3093137 L42.6843445,26.8039216 L42.6155151,26.8039216 C42.2389197,28.9485294 41.9852341,30.3004902 41.8549498,30.8598039 L40.5294916,36.3857843 L35.7940268,36.3857843 L32.233087,23.3691176 L36.6696355,23.3691176 L37.7296087,28.3666667 C38.0678562,30.0823529 38.2635284,31.5068627 38.3171171,32.6406863 L38.3864381,32.6406863 C38.4095452,31.9357843 38.6209498,30.5955882 39.0201605,28.6196078 L40.2300836,23.3691176 L45.2079264,23.3691176 L46.3141137,28.6882353 C46.667602,30.3808824 46.8903144,31.6985294 46.9822508,32.6406863 L47.0515719,32.6406863 C47.097786,32.0583333 47.1744816,31.3328431 47.2821505,30.4632353 C47.3898194,29.5941176 47.508796,28.895098 47.6390803,28.3666667 L48.7914816,23.3691176 L53.135602,23.3691176 L49.5520468,36.3857843 L44.7354615,36.3857843 L44.7354615,36.3857843 L44.7354615,36.3857843 Z" id="Shape" fill="#FFFFFF"></path>
            <path d="M53.4699164,34.4789216 C53.4699164,33.7740196 53.6793545,33.2303922 54.0977391,32.847549 C54.5166154,32.4642157 55.1252642,32.2730392 55.9241773,32.2730392 C56.6847425,32.2730392 57.2683177,32.4642157 57.6753946,32.847549 C58.0829632,33.2303922 58.2865017,33.7740196 58.2865017,34.4789216 C58.2865017,35.1681373 58.0770635,35.7063725 57.6581873,36.0931373 C57.2398027,36.479902 56.6616355,36.6730392 55.9241773,36.6730392 C55.163612,36.6730392 54.5643043,36.4818627 54.1267458,36.0985294 C53.6886957,35.7156863 53.4699164,35.1759804 53.4699164,34.4789216 L53.4699164,34.4789216 L53.4699164,34.4789216 Z" id="Shape" fill="#FFFFFF"></path>
            <path d="M63.620291,28.1115245 C58.6080334,25.9071127 55.1055987,20.9071127 55.1055987,15.097799 C55.1055987,7.25221078 61.4944448,0.882112745 69.3631237,0.882112745 C77.2322943,0.882112745 83.6206488,7.25221078 83.6206488,15.097799 C83.6206488,22.9438775 77.2322943,29.3134853 69.3631237,29.3134853 C68.9162241,29.3134853 68.4737492,29.2933873 68.0371739,29.252701 C65.9614749,32.8634853 61.2904147,33.2992696 61.2904147,33.2992696 C63.3636555,32.220348 63.6517559,29.6590735 63.620291,28.1115245 L63.620291,28.1115245 L63.620291,28.1115245 Z" id="Shape" fill="#E50770"></path>
            <path d="M68.6649967,20.1176471 L68.1246856,19.0406863 L68.0671639,19.0406863 C67.6881104,19.5098039 67.3011906,19.8303922 66.9078796,20.0029412 C66.5140769,20.175 66.0052308,20.2612745 65.3808495,20.2612745 C64.6129097,20.2612745 64.0077023,20.0318627 63.5662107,19.5720588 C63.1242274,19.1127451 62.9034816,18.4661765 62.9034816,17.6333333 C62.9034816,16.7666667 63.2058395,16.1215686 63.8110468,15.6980392 C64.4157625,15.2745098 65.2923545,15.0362745 66.4398395,14.9838235 L67.8006957,14.9406863 L67.8006957,14.8254902 C67.8006957,14.1553922 67.4693311,13.8205882 66.8070936,13.8205882 C66.2117191,13.8205882 65.4555786,14.0215686 64.5381806,14.4235294 L63.7245184,12.5710784 C64.6753478,12.0828431 65.8754381,11.8387255 67.3252809,11.8387255 C68.3719799,11.8387255 69.1822007,12.0970588 69.7559431,12.6142157 C70.3296856,13.1308824 70.6168027,13.8539216 70.6168027,14.7828431 L70.6168027,20.1176471 L68.6649967,20.1176471 L68.6649967,20.1176471 L68.6649967,20.1176471 L68.6649967,20.1176471 Z M66.5765151,18.2794118 C66.9172207,18.2794118 67.2087625,18.1720588 67.4516321,17.9563725 C67.69401,17.7411765 67.8149532,17.4607843 67.8149532,17.1161765 L67.8149532,16.4843137 L67.1669732,16.5132353 C66.2402341,16.5465686 65.7771104,16.8867647 65.7771104,17.5328431 C65.7771104,18.0303922 66.0435786,18.2794118 66.5765151,18.2794118 L66.5765151,18.2794118 L66.5765151,18.2794118 L66.5765151,18.2794118 Z" id="Shape" fill="#FFFFFF"></path>
            <path d="M75.362592,20.1176471 L72.5464849,20.1176471 L72.5464849,11.9823529 L75.362592,11.9823529 L75.362592,20.1176471 L75.362592,20.1176471 L75.362592,20.1176471 L75.362592,20.1176471 Z M72.4747057,9.95735294 C72.4747057,9.53578431 72.5922074,9.22254902 72.8277023,9.01666667 C73.0627057,8.81078431 73.4422508,8.70784314 73.9653545,8.70784314 C74.4889498,8.70784314 74.8704615,8.81323529 75.1103813,9.02352941 C75.3507926,9.23431373 75.4707525,9.54558824 75.4707525,9.95735294 C75.4707525,10.7803922 74.9687893,11.1921569 73.9653545,11.1921569 C72.9717525,11.1921569 72.4747057,10.7803922 72.4747057,9.95735294 L72.4747057,9.95735294 L72.4747057,9.95735294 L72.4747057,9.95735294 Z" id="Shape" fill="#FFFFFF"></path>
        </g>
    </g>
</svg>