<?xml version="1.0" encoding="utf-8"?>
<!-- Generator: Adobe Illustrator 19.2.1, SVG Export Plug-In . SVG Version: 6.00 Build 0)  -->
<svg version="1.1" id="Layer_1" xmlns="http://www.w3.org/2000/svg" xmlns:xlink="http://www.w3.org/1999/xlink" x="0px" y="0px"
	 viewBox="0 0 200 200" style="enable-background:new 0 0 200 200;" xml:space="preserve">
<style type="text/css">
	.st0{fill:#FFFFFF;}
	.st1{fill:none;stroke:#FFFFFF;stroke-width:7;stroke-miterlimit:10;}
</style>
<g>
	<g>
		<path class="st0" d="M95,58c0,8.4,0,16.8,0,25.1c0,6.4,10,6.4,10,0c0-8.4,0-16.8,0-25.1C105,51.6,95,51.6,95,58L95,58z"/>
	</g>
</g>
<path class="st1" d="M100,180.7L100,180.7c-23.4,0-42.5-19.1-42.5-42.5V66.4c0-23.4,19.1-42.5,42.5-42.5h0
	c23.4,0,42.5,19.1,42.5,42.5v71.9C142.5,161.6,123.4,180.7,100,180.7z"/>
</svg>
