<?xml version="1.0" encoding="UTF-8"?>
<svg width="33px" height="24px" viewBox="0 0 33 24" version="1.1" xmlns="http://www.w3.org/2000/svg" xmlns:xlink="http://www.w3.org/1999/xlink">
    <!-- Generator: Sketch 40.3 (33839) - http://www.bohemiancoding.com/sketch -->
    <title>Group Copy 2</title>
    <desc>Created with Sketch.</desc>
    <defs>
        <path d="M26.2490691,12.1361256 C26.249689,12.0908243 26.25,12.0454485 26.25,12 C26.25,6.61522369 21.8847763,2.25 16.5,2.25 C11.1152237,2.25 6.75,6.61522369 6.75,12 C6.75,12.0454543 6.75031104,12.090836 6.75093112,12.136143 C6.75031123,12.1715894 6.75,12.2071108 6.75,12.2427047 L6.75,15.7572953 C6.75,19.0678014 9.44065976,21.75 12.7597568,21.75 L20.2402432,21.75 C23.5590817,21.75 26.25,19.0669747 26.25,15.7572953 L26.25,12.2427047 C26.25,12.2071048 26.2496889,12.1715776 26.2490691,12.1361256 Z" id="path-1"></path>
        <mask id="mask-2" maskContentUnits="userSpaceOnUse" maskUnits="objectBoundingBox" x="-1" y="-1" width="21.5" height="21.5">
            <rect x="5.75" y="1.25" width="21.5" height="21.5" fill="white"></rect>
            <use xlink:href="#path-1" fill="black"></use>
        </mask>
        <path d="M21.5,17 C21.5,15.3431458 19.2614237,14 16.5,14 C13.7385763,14 11.5,15.3431458 11.5,17" id="path-3"></path>
        <mask id="mask-4" maskContentUnits="userSpaceOnUse" maskUnits="objectBoundingBox" x="0" y="0" width="10" height="3" fill="white">
            <use xlink:href="#path-3"></use>
        </mask>
    </defs>
    <g id="Design-Guidelines" stroke="none" stroke-width="1" fill="none" fill-rule="evenodd">
        <g id="Artboard" transform="translate(-498.000000, -316.000000)">
            <g id="Group-Copy-2" transform="translate(498.000000, 316.000000)">
                <path d="M24.75,13.5 C24.75,15.1568542 25.7573593,16.5 27,16.5 L29.25,16.5 L29.25,10.5 L27,10.5 C25.7573593,10.5 24.75,11.8431458 24.75,13.5 Z" id="Combined-Shape-Copy-13" fill="#4E5F71" transform="translate(27.000000, 13.500000) scale(-1, 1) translate(-27.000000, -13.500000) "></path>
                <path d="M14.25,21.75 C14.25,25.0637085 15.2573593,27.75 16.5,27.75 L18.75,27.75 L18.75,15.75 L16.5,15.75 C15.2573593,15.75 14.25,18.4362915 14.25,21.75 Z" id="Combined-Shape-Copy-15" fill="#4E5F71" transform="translate(16.500000, 21.750000) scale(-1, 1) rotate(-90.000000) translate(-16.500000, -21.750000) "></path>
                <path d="M14.25,2.25 C14.25,3.90685425 15.2573593,5.25 16.5,5.25 L18.75,5.25 L18.75,-0.75 L16.5,-0.75 C15.2573593,-0.75 14.25,0.593145751 14.25,2.25 Z" id="Combined-Shape-Copy-16" fill="#4E5F71" transform="translate(16.500000, 2.250000) scale(-1, -1) rotate(-90.000000) translate(-16.500000, -2.250000) "></path>
                <path d="M3.75,13.5 C3.75,15.1568542 4.75735931,16.5 6,16.5 L8.25,16.5 L8.25,10.5 L6,10.5 C4.75735931,10.5 3.75,11.8431458 3.75,13.5 Z" id="Combined-Shape-Copy-14" fill="#4E5F71"></path>
                <g id="Combined-Shape">
                    <use fill="#4E5F71" fill-rule="evenodd" xlink:href="#path-1"></use>
                    <use stroke="#FFFFFF" mask="url(#mask-2)" stroke-width="2" xlink:href="#path-1"></use>
                </g>
                <ellipse id="Oval-6" fill="#FFFFFF" cx="16.5" cy="10.875" rx="8.25" ry="6.375"></ellipse>
                <rect id="Rectangle-5" fill="#FFFFFF" x="8.25" y="8" width="16.5" height="10.75" rx="3"></rect>
                <ellipse id="Oval-6-Copy-12" fill="#4E5F71" cx="12.375" cy="10.125" rx="1.875" ry="1.875"></ellipse>
                <ellipse id="Oval-6-Copy-13" fill="#4E5F71" cx="20.625" cy="10.125" rx="1.875" ry="1.875"></ellipse>
                <ellipse id="Oval-5" fill="#4E5F71" cx="1.125" cy="13.5" rx="1.125" ry="1.5"></ellipse>
                <ellipse id="Oval-5" fill="#4E5F71" cx="31.875" cy="13.5" rx="1.125" ry="1.5"></ellipse>
                <rect id="Rectangle-6" fill="#4E5F71" x="1.5" y="13.125" width="3" height="0.75"></rect>
                <rect id="Rectangle-6" fill="#4E5F71" x="29.25" y="13.125" width="3" height="0.75"></rect>
                <use id="Oval-2" stroke="#4E5F71" mask="url(#mask-4)" stroke-width="2" transform="translate(16.500000, 15.500000) scale(1, -1) translate(-16.500000, -15.500000) " xlink:href="#path-3"></use>
            </g>
        </g>
    </g>
</svg>